<mxfile host="app.diagrams.net" modified="2020-07-21T12:59:00.473Z" agent="5.0 (Windows NT 10.0; Win64; x64) AppleWebKit/537.36 (KHTML, like Gecko) Chrome/83.0.4103.116 Safari/537.36" etag="Yv9AZuww8EdPEPTegxiL" version="13.4.8" type="github">
  <diagram id="vj52STW84l6aY_BFtKZN" name="Page-1">
    <mxGraphModel dx="1406" dy="745" grid="1" gridSize="10" guides="1" tooltips="1" connect="1" arrows="1" fold="1" page="1" pageScale="1" pageWidth="827" pageHeight="1169" math="0" shadow="0">
      <root>
        <mxCell id="0" />
        <mxCell id="1" parent="0" />
        <mxCell id="vRk3t7_U7sNHyU407ia8-1" value="&lt;font style=&quot;font-size: 14px&quot;&gt;isPerson&lt;br&gt;CreditGood&lt;/font&gt;" style="rounded=0;whiteSpace=wrap;html=1;" vertex="1" parent="1">
          <mxGeometry x="200" y="140" width="120" height="180" as="geometry" />
        </mxCell>
        <mxCell id="vRk3t7_U7sNHyU407ia8-2" value="" style="endArrow=classic;html=1;" edge="1" parent="1">
          <mxGeometry width="50" height="50" relative="1" as="geometry">
            <mxPoint x="80" y="160" as="sourcePoint" />
            <mxPoint x="190" y="160" as="targetPoint" />
          </mxGeometry>
        </mxCell>
        <mxCell id="vRk3t7_U7sNHyU407ia8-3" value="&lt;font style=&quot;font-size: 14px&quot;&gt;personId: int&lt;/font&gt;" style="text;html=1;strokeColor=none;fillColor=none;align=center;verticalAlign=middle;whiteSpace=wrap;rounded=0;" vertex="1" parent="1">
          <mxGeometry x="90" y="130" width="90" height="20" as="geometry" />
        </mxCell>
        <mxCell id="vRk3t7_U7sNHyU407ia8-61" value="&lt;font style=&quot;font-size: 14px&quot;&gt;isPersonIdValid&lt;/font&gt;" style="rounded=0;whiteSpace=wrap;html=1;" vertex="1" parent="1">
          <mxGeometry x="500" y="140" width="120" height="60" as="geometry" />
        </mxCell>
        <mxCell id="vRk3t7_U7sNHyU407ia8-62" value="" style="endArrow=classic;html=1;" edge="1" parent="1">
          <mxGeometry width="50" height="50" relative="1" as="geometry">
            <mxPoint x="330" y="160" as="sourcePoint" />
            <mxPoint x="490" y="160" as="targetPoint" />
          </mxGeometry>
        </mxCell>
        <mxCell id="vRk3t7_U7sNHyU407ia8-63" value="&lt;font style=&quot;font-size: 14px&quot;&gt;personId: int&lt;/font&gt;" style="text;html=1;strokeColor=none;fillColor=none;align=center;verticalAlign=middle;whiteSpace=wrap;rounded=0;" vertex="1" parent="1">
          <mxGeometry x="369" y="130" width="90" height="20" as="geometry" />
        </mxCell>
        <mxCell id="vRk3t7_U7sNHyU407ia8-64" value="" style="endArrow=classic;html=1;" edge="1" parent="1">
          <mxGeometry width="50" height="50" relative="1" as="geometry">
            <mxPoint x="490" y="180" as="sourcePoint" />
            <mxPoint x="330" y="180" as="targetPoint" />
          </mxGeometry>
        </mxCell>
        <mxCell id="vRk3t7_U7sNHyU407ia8-65" value="&lt;font style=&quot;font-size: 14px&quot;&gt;isPersonIdValid: bool&lt;/font&gt;" style="text;html=1;strokeColor=none;fillColor=none;align=center;verticalAlign=middle;whiteSpace=wrap;rounded=0;" vertex="1" parent="1">
          <mxGeometry x="340" y="190" width="140" height="20" as="geometry" />
        </mxCell>
        <mxCell id="vRk3t7_U7sNHyU407ia8-66" value="" style="endArrow=classic;html=1;" edge="1" parent="1">
          <mxGeometry width="50" height="50" relative="1" as="geometry">
            <mxPoint x="190" y="270" as="sourcePoint" />
            <mxPoint x="80" y="270" as="targetPoint" />
          </mxGeometry>
        </mxCell>
        <mxCell id="vRk3t7_U7sNHyU407ia8-67" value="&lt;font style=&quot;font-size: 14px&quot;&gt;isInGoodCredit: bool&lt;/font&gt;" style="text;html=1;strokeColor=none;fillColor=none;align=center;verticalAlign=middle;whiteSpace=wrap;rounded=0;" vertex="1" parent="1">
          <mxGeometry x="60" y="280" width="140" height="20" as="geometry" />
        </mxCell>
        <mxCell id="vRk3t7_U7sNHyU407ia8-68" value="&lt;font style=&quot;font-size: 14px&quot;&gt;isInGoodCredit&lt;/font&gt;" style="rounded=0;whiteSpace=wrap;html=1;" vertex="1" parent="1">
          <mxGeometry x="500" y="240" width="120" height="60" as="geometry" />
        </mxCell>
        <mxCell id="vRk3t7_U7sNHyU407ia8-69" value="" style="endArrow=classic;html=1;" edge="1" parent="1">
          <mxGeometry width="50" height="50" relative="1" as="geometry">
            <mxPoint x="330" y="260" as="sourcePoint" />
            <mxPoint x="490" y="260" as="targetPoint" />
          </mxGeometry>
        </mxCell>
        <mxCell id="vRk3t7_U7sNHyU407ia8-70" value="&lt;font style=&quot;font-size: 14px&quot;&gt;personId: int&lt;/font&gt;" style="text;html=1;strokeColor=none;fillColor=none;align=center;verticalAlign=middle;whiteSpace=wrap;rounded=0;" vertex="1" parent="1">
          <mxGeometry x="369" y="230" width="90" height="20" as="geometry" />
        </mxCell>
        <mxCell id="vRk3t7_U7sNHyU407ia8-71" value="" style="endArrow=classic;html=1;" edge="1" parent="1">
          <mxGeometry width="50" height="50" relative="1" as="geometry">
            <mxPoint x="490" y="280" as="sourcePoint" />
            <mxPoint x="330" y="280" as="targetPoint" />
          </mxGeometry>
        </mxCell>
        <mxCell id="vRk3t7_U7sNHyU407ia8-72" value="&lt;font style=&quot;font-size: 14px&quot;&gt;isInGoodCredit: bool&lt;/font&gt;" style="text;html=1;strokeColor=none;fillColor=none;align=center;verticalAlign=middle;whiteSpace=wrap;rounded=0;" vertex="1" parent="1">
          <mxGeometry x="340" y="290" width="140" height="20" as="geometry" />
        </mxCell>
      </root>
    </mxGraphModel>
  </diagram>
</mxfile>
